<svg xmlns="http://www.w3.org/2000/svg" width="128" height="128" viewBox="0 0 128 128" role="img" aria-label="Farm Manager logo">
  <defs>
    <linearGradient id="field" x1="16" x2="112" y1="20" y2="112" gradientUnits="userSpaceOnUse">
      <stop offset="0" stop-color="#4d8fb7"/>
      <stop offset="0.48" stop-color="#2f7d5c"/>
      <stop offset="1" stop-color="#667a3d"/>
    </linearGradient>
  </defs>
  <rect width="128" height="128" rx="28" fill="#f2f6f0"/>
  <path d="M18 81c18-10 35-11 51-2 14 8 27 8 41-1v30H18V81Z" fill="url(#field)"/>
  <path d="M25 70 64 39l39 31v41H25V70Z" fill="#ffffff"/>
  <path d="M64 30 110 67l-8 10-38-30-38 30-8-10 46-37Z" fill="#d68c45"/>
  <path d="M48 78h32v33H48V78Z" fill="#2f7d5c"/>
  <path d="M35 83h8v8h-8v-8Zm50 0h8v8h-8v-8Z" fill="#4d8fb7"/>
  <path d="M23 103c17-8 31-8 43 0 12 7 25 7 39 0" fill="none" stroke="#ffffff" stroke-width="6" stroke-linecap="round"/>
  <circle cx="95" cy="34" r="10" fill="#ffd36e"/>
</svg>
